<?xml version="1.0" encoding="UTF-8" standalone="no"?>
<!-- Created with Inkscape (http://www.inkscape.org/) -->

<svg
   version="1.1"
   id="svg48"
   width="391"
   height="218"
   viewBox="0 0 391 218"
   xmlns="http://www.w3.org/2000/svg"
   xmlns:svg="http://www.w3.org/2000/svg">
  <defs
     id="defs52" />
  <g
     id="g54">
    <g
       id="g216"
       transform="translate(0.54710914,0.29960663)"
       style="stroke:none">
      <path
         style="fill:#9da0a4;stroke:none"
         d="m 142.03518,194.06574 c -1.60002,-2.98966 -1.38292,-51.20791 0.24055,-53.42815 1.03187,-1.41117 2.51332,-1.68664 7.75,-1.44113 L 156.5,139.5 l 0.2489,9.5 c 0.1369,5.225 0.48451,10.51864 0.77248,11.76364 l 0.52357,2.26363 32.72752,-0.26363 L 223.5,162.5 224,151.79539 c 0.275,-5.88754 0.99571,-11.19825 1.60157,-11.80157 0.64003,-0.63736 3.78238,-0.97061 7.5,-0.79539 L 239.5,139.5 v 28 28 l -6.75732,0.29586 c -6.48187,0.28379 -6.79778,0.18942 -7.75,-2.3151 C 224.44671,192.04473 224,186.84303 224,181.92142 v -8.94838 l -33.25,0.26348 -33.25,0.26348 -0.28855,9.94399 c -0.15871,5.46919 -0.77631,10.53169 -1.37245,11.25 -0.66557,0.80197 -3.33868,1.30601 -6.92626,1.30601 -4.75273,0 -6.03544,-0.36075 -6.87756,-1.93426 z M 155.77325,184 c 0.21908,-8.41868 0.60386,-10.74778 1.94113,-11.75 2.47285,-1.85329 65.58511,-1.79899 67.12607,0.0577 0.59694,0.71927 1.21454,6.00677 1.37244,11.75 L 226.5,194.5 h 6 6 v -27 -27 h -6 -6 l -0.2489,9.5 c -0.1369,5.225 -0.48445,10.5184 -0.77234,11.7631 l -0.52344,2.2631 -34.22766,-0.2631 L 156.5,163.5 156,152 155.5,140.5 h -6 -6 l -0.26736,25.98358 c -0.14704,14.29097 -0.04,26.57609 0.23791,27.30027 0.35663,0.92937 2.2002,1.22836 6.26735,1.01641 L 155.5,194.5 Z m -23.71176,4.06149 C 130.43523,186.43523 130,184.72664 130,179.96862 c 0,-4.83154 -0.34813,-6.15984 -1.75,-6.67706 -2.47177,-0.91198 -3.21712,-2.3098 -3.23469,-6.06631 -0.0121,-2.58019 0.51493,-3.47635 2.48469,-4.22525 2.30553,-0.87656 2.5,-1.44598 2.5,-7.32026 0,-7.12296 1.93673,-10.10933 6.16753,-9.5101 L 138.5,146.5 V 168 c 0,21.35575 -0.0147,21.50209 -2.18851,21.81149 -1.21943,0.17357 -3.10134,-0.60134 -4.25,-1.75 z m 5.70885,-20.41327 c -0.22786,-16.9601 -0.50606,-20.16333 -1.77034,-20.38395 -3.26614,-0.56997 -4.42265,1.52391 -4.83075,8.74614 -0.36223,6.4107 -0.64255,7.21904 -2.786,8.03398 -3.26945,1.24304 -3.2056,5.37068 0.11675,7.54757 2.1979,1.44011 2.5,2.34921 2.5,7.52305 0,6.35351 2.42212,10.42771 5.49766,9.24751 1.33265,-0.51138 1.50616,-3.33553 1.27268,-20.7143 z m 105.26484,20.41752 c -1.10448,-2.06374 -1.4818,-37.73829 -0.42819,-40.48395 0.73516,-1.9158 5.70328,-2.11779 7.21735,-0.29344 0.58808,0.70859 1.20568,4.19609 1.37245,7.75 0.26098,5.56172 0.61236,6.59732 2.52298,7.43576 C 257.6581,164.20239 257.53443,173 253.57181,173 251.65047,173 251,175.28811 251,182.0466 c 0,4.79293 -0.35841,6.07485 -1.93426,6.91822 -2.89945,1.55173 -4.87668,1.25695 -6.03056,-0.89908 z m 6.75947,-7.96859 c 0.26991,-6.5776 0.50084,-7.259 2.75,-8.11413 C 254.51082,171.23549 255,170.34726 255,167.52475 255,164.73307 254.6063,164 253.10699,164 250.65614,164 250,162.12432 250,155.11821 250,149.18166 248.87131,147 245.8,147 c -1.67432,0 -1.8,1.41975 -1.8,20.33333 0,11.18334 0.26916,20.6025 0.59814,20.93148 0.32897,0.32897 1.56647,0.24147 2.75,-0.19446 1.88691,-0.695 2.18814,-1.67672 2.44651,-7.9732 z M 107.5,130 c -1.82668,-1.20976 -4.69228,-1.9894 -7.32692,-1.99341 -3.444015,-0.005 -4.923382,-0.60305 -7.250003,-2.92967 L 90,122.15385 V 106.5 90.846154 l 2.849537,-2.849537 c 5.176213,-5.176213 15.124713,-5.176213 20.300923,0 L 116,90.846154 115.9682,106.17308 c -0.0246,11.85209 -0.36285,15.76451 -1.49197,17.25706 -1.28942,1.70445 -1.26957,2.14074 0.16982,3.73124 1.32853,1.46801 1.39687,2.08198 0.36952,3.31986 -1.69656,2.04422 -3.91693,1.90205 -7.51557,-0.48124 z m 6.5,-0.3 c 0,-0.715 -0.51374,-1.81374 -1.14164,-2.44164 -0.85551,-0.85551 -0.7302,-2.00866 0.5,-4.60113 C 114.62796,119.98175 115,116.14646 115,105.73373 115,93.666735 114.78692,91.998827 112.94638,89.658965 108.17946,83.59881 95.039598,84.228154 92.110457,90.656918 91.46509,92.073345 91,98.970202 91,107.12398 v 14.02987 l 2.923077,2.92307 c 2.358106,2.35811 3.78629,2.92308 7.389213,2.92308 2.97405,0 5.25485,0.65706 6.82693,1.96673 C 110.84485,131.22075 114,131.6155 114,129.7 Z M 98.556704,120.77749 C 97.347367,119.05092 97,115.73837 97,105.93248 c 0,-10.958486 0.241082,-12.840681 1.828741,-14.277492 2.610119,-2.362126 6.753749,-2.089147 8.614559,0.567518 2.2729,3.245022 2.26096,26.930384 -0.0147,29.206064 -2.33247,2.33247 -7.02322,1.98823 -8.871866,-0.65108 z m 8.720476,-2.74437 c 0.49082,-1.90678 0.74174,-8.07924 0.55761,-13.71659 -0.37638,-11.523082 -1.60871,-14.092057 -6.20635,-12.938122 -1.921832,0.482349 -2.700866,1.490734 -3.197707,4.139126 -0.843744,4.497536 -0.136297,23.576196 0.937722,25.288826 0.467519,0.7455 2.149535,1.17483 3.917785,1 2.59937,-0.25701 3.2423,-0.86486 3.99094,-3.77324 z m 191.34142,9.09793 c -1.51935,-1.67886 -1.6765,-5.04123 -1.54505,-33.057834 0.14592,-31.101672 0.15323,-31.201845 2.61256,-35.827207 1.35642,-2.551082 3.52096,-5.891824 4.8101,-7.423871 2.00801,-2.38639 2.19016,-3.192775 1.27116,-5.627483 -0.58999,-1.563069 -0.76514,-4.067416 -0.38921,-5.565216 0.66331,-2.642844 0.86717,-2.714504 6.90267,-2.426356 L 318.5,37.5 V 43 c 0,4.815064 0.53511,6.301268 4.29687,11.93414 3.8394,5.749129 4.30494,7.079942 4.37268,12.5 0.0417,3.336223 0.26788,17.473356 0.50263,31.415851 C 328.21752,131.2399 329.33488,129 312.63193,129 c -10.76397,0 -12.53581,-0.23631 -14.01333,-1.86895 z m 26.50896,-0.7833 c 1.0862,-1.30764 1.346,-6.57393 1.24567,-25.25 -0.22883,-42.59388 0.21389,-39.497053 -6.99924,-48.959385 -2.69746,-3.538595 -3.12917,-4.727301 -2.28778,-6.299453 0.5704,-1.0658 0.89685,-3.153065 0.72544,-4.638365 -0.29034,-2.515847 -0.67979,-2.721534 -5.69434,-3.007408 l -5.3827,-0.306862 0.5196,5.306862 c 0.47525,4.853988 0.23006,5.703 -2.87322,9.948899 -6.04958,8.276994 -6.09891,8.601405 -6.3074,41.477823 -0.16915,26.672219 -0.004,30.306459 1.43913,31.749999 2.40903,2.40904 23.6106,2.39074 25.61484,-0.0221 z M 307,108.62573 c 0,-0.20585 0.64068,-2.19017 1.42374,-4.40959 C 309.95551,99.874632 309.68884,99 306.83333,99 c -3.05605,0 -2.09317,-3.106877 3.17665,-10.25 6.57685,-8.914752 8.46155,-9.172225 5.49002,-0.75 -1.88033,5.329414 -1.96354,4.873262 1.10166,6.038649 1.70716,0.649063 2.40522,1.501029 2.03034,2.47797 C 317.46447,99.559148 309.71104,109 308.37985,109 307.62093,109 307,108.83158 307,108.62573 Z M 317,96.33339 C 317,95.600026 316.04891,95 314.88646,95 c -1.93825,0 -2.05758,-0.373229 -1.43873,-4.5 0.37115,-2.475 0.49704,-4.5 0.27976,-4.5 C 313.19756,86 306,96.48189 306,97.253634 c 0,0.333995 1.0125,0.751336 2.25,0.927424 1.89822,0.270104 2.21377,0.867281 2.01829,3.819552 l -0.23172,3.49939 3.48172,-3.91661 C 315.43323,99.429255 317,97.066755 317,96.33339 Z M 128.96108,126.53862 C 124.35935,124.03504 123.91986,121.8527 124.22072,103 L 124.5,85.5 h 3.5 3.5 l 0.5,16.83315 c 0.45091,15.1805 0.69058,16.97226 2.44113,18.25 2.40529,1.75565 2.71303,1.75556 5.11774,-0.001 1.75046,-1.27895 1.99024,-3.07155 2.44113,-18.25 L 142.5,85.5 h 3.5 3.5 l 0.27339,17.82661 0.27338,17.82662 -3.42338,3.42338 c -3.13196,3.13196 -3.9214,3.41998 -9.27339,3.38335 -3.2175,-0.022 -6.99252,-0.66162 -8.38892,-1.42134 z m 14.39877,-0.91561 c 5.06228,-2.11516 5.7312,-4.9733 5.4167,-23.14423 L 148.5,86.5 h -2.5 -2.5 l -0.5,16.83272 c -0.4509,15.17987 -0.6906,16.97188 -2.44113,18.25 -2.4618,1.79744 -4.6556,1.79757 -7.11774,4.3e-4 -1.75055,-1.27774 -1.99022,-3.0695 -2.44113,-18.25 L 130.5,86.5 h -2.5 -2.5 l -0.27427,16.77039 c -0.17712,10.83015 0.11642,17.50041 0.82874,18.83138 2.32519,4.34466 11.07405,6.12485 17.30538,3.52124 z m 13.81455,1.50594 c -1.07209,-0.67971 -0.62885,-4.16685 2.31777,-18.23469 5.3538,-25.560261 4.66402,-24.052243 10.83754,-23.693269 l 5.14226,0.299009 4.69957,19.97519 c 4.94279,21.009 4.96062,22.52481 0.26503,22.52481 -2.64027,0 -3.51277,-1.05482 -4.96295,-6 -0.91742,-3.12848 -1.43736,-3.53388 -4.89821,-3.8192 -4.14948,-0.34209 -5.53395,0.77786 -5.5601,4.49777 -0.0286,4.07478 -4.46326,6.5918 -7.84091,4.45038 z m 6.54838,-5.37895 0.84047,-4.25 h 5.43634 5.43633 l 1.11618,4 c 0.90376,3.23873 1.62355,4.06022 3.78204,4.31642 3.46651,0.41146 3.47693,0.54566 -1.65536,-21.31642 l -4.22564,-18 -4.17324,-0.304892 c -4.88601,-0.356966 -4.27707,-1.788172 -9.23829,21.712912 C 157.31316,125.56957 157.29888,126 160.44115,126 c 2.07344,0 2.56775,-0.64018 3.28163,-4.25 z m 2.76153,-9.77538 c -0.82587,-1.3363 1.30045,-16.035415 2.61482,-18.075998 0.76568,-1.188741 1.04304,-1.177438 1.84829,0.07532 1.18982,1.85105 3.3337,14.318018 2.87679,16.728928 -0.39526,2.08562 -6.21382,3.09377 -7.3399,1.27175 z m 6.13064,-1.41359 C 173.32314,108.71552 171.12306,98 170.03595,98 c -0.98905,0 -3.21084,11.908 -2.45114,13.13723 0.86287,1.39615 4.43009,0.98753 5.03014,-0.5762 z M 192.2,126.8 c -1.267,-1.267 -1.79513,-37.085531 -0.59301,-40.218213 0.38847,-1.012327 1.82851,-1.581787 4,-1.581787 1.86615,0 3.47848,0.1125 3.58294,0.25 0.10446,0.1375 0.44196,8.125 0.75,17.75 L 200.5,120.5 205,121 c 3.80813,0.42313 4.55189,0.86698 4.83749,2.88691 0.18562,1.3128 -0.26438,2.76841 -1,3.23469 -2.06828,1.31099 -15.25989,1.056 -16.63749,-0.3216 z m 16.61433,-2.55 c -0.24906,-1.31155 -1.49425,-1.82531 -4.96992,-2.05057 -5.8476,-0.37899 -5.81325,-0.25851 -5.83076,-20.44943 L 198,86 h -2.5 -2.5 v 20 20 h 8.07332 c 7.14882,0 8.03527,-0.2004 7.74101,-1.75 z m 8.93567,2.6699 c -1.5714,-0.91525 -1.74844,-2.97883 -1.73469,-20.21959 0.008,-10.560171 0.39311,-19.796192 0.85487,-20.524493 0.50491,-0.796372 2.19283,-1.194966 4.23468,-1 L 224.5,85.5 l 0.27155,19.87158 c 0.27846,20.37823 -0.0902,22.66441 -3.64399,22.59801 -0.89516,-0.0167 -2.41506,-0.48908 -3.37756,-1.04969 z M 223.78485,108 c 0.33059,-20.309765 0.0562,-22.259485 -3.0702,-21.814919 -2.1905,0.311485 -2.21761,0.531057 -2.48602,20.133399 l -0.27137,19.81849 2.77137,-0.31849 L 223.5,125.5 Z m 16.36322,18.67841 c -0.67042,-0.80781 -1.20397,-7.70824 -1.37244,-17.75 L 238.5,92.5 235,92 c -3.11111,-0.444444 -3.5,-0.833333 -3.5,-3.5 v -3 h 12 c 11.88746,0 12.00317,0.02239 12.33749,2.38691 0.39247,2.775708 -1.22219,4.076254 -5.08749,4.097777 L 248,92 v 16.8 c 0,11.73333 -0.3619,17.1619 -1.2,18 -1.59472,1.59472 -5.28348,1.52729 -6.65193,-0.12159 z M 246,109.57143 C 246,91.403391 246.44062,90 252.14475,90 c 2.32067,0 2.92542,-0.397131 2.66488,-1.75 -0.29655,-1.539865 -1.65458,-1.75 -11.30963,-1.75 -9.30461,0 -11.01988,0.245448 -11.28356,1.614635 -0.23001,1.19435 0.74254,1.783096 3.7363,2.261818 L 240,91.023635 v 16.821515 c 0,9.25183 0.3,17.12152 0.66667,17.48818 0.36666,0.36667 1.71666,0.66667 3,0.66667 H 246 Z M 271.2,126.8 c -0.71115,-0.71115 -1.2,-4.1336 -1.2,-8.40122 0,-6.14319 -0.66116,-8.91188 -4.5,-18.844426 -2.475,-6.403767 -4.5,-12.298219 -4.5,-13.098783 0,-1.850633 6.30329,-1.999981 7.80956,-0.185037 0.57995,0.698794 1.83711,4.085607 2.79369,7.526251 0.95659,3.440643 2.19566,6.103577 2.7535,5.917631 0.55784,-0.185947 1.94328,-3.02013 3.07875,-6.298183 1.13548,-3.278054 2.42856,-6.512728 2.87352,-7.188165 0.95346,-1.447335 6.3105,-1.652711 7.16223,-0.274582 0.32411,0.524417 -1.44933,6.311527 -3.94098,12.860243 C 279.70688,108.86263 279,111.82339 279,117.78882 c 0,5.09241 -0.43928,7.50761 -1.57143,8.63975 -1.87152,1.87152 -4.5677,2.0323 -6.22857,0.37143 z m 5.8,-7.70122 c 0,-5.78763 0.72612,-8.77997 4.5,-18.54443 C 286.53331,87.531253 286.80922,86 284.12244,86 c -2.5697,0 -3.50158,1.41907 -6.06725,9.239138 -1.21606,3.706525 -2.57497,6.964072 -3.0198,7.238992 -1.33736,0.82653 -2.75175,-1.64721 -4.56159,-7.97813 -0.94338,-3.3 -2.16602,-6.5625 -2.71696,-7.25 -1.09768,-1.369734 -4.37847,-1.692653 -5.0799,-0.5 -0.2426,0.4125 1.52933,5.925 3.93762,12.25 3.67411,9.6495 4.37924,12.6398 4.38207,18.58333 0.002,3.89584 0.30337,7.38334 0.67004,7.75 0.36666,0.36667 1.71666,0.66667 3,0.66667 2.21904,0 2.33333,-0.33804 2.33333,-6.90122 z"
         id="path226" />
      <path
         style="fill:#c83330;stroke:none"
         d="m 58.973129,126.46762 c -0.990219,-1.19314 -1.15142,-7.49537 -0.728166,-28.46805 L 58.788558,71.063896 56.366589,68.450548 C 54.016922,65.915216 53.95291,65.429532 54.22231,52.181021 54.467983,40.099392 54.701774,38.48613 56.25,38.189096 c 1.545251,-0.296462 1.751598,0.579581 1.763655,7.48758 C 58.030386,55.262786 58.695845,58 61.009643,58 63.500379,58 64,56.052694 64,46.344888 c 0,-7.548385 0.194372,-8.454254 1.75,-8.155866 1.543404,0.296042 1.78285,1.885417 2.028257,13.463017 0.270791,12.775148 0.210425,13.207961 -2.25,16.13201 -2.40832,2.862126 -2.523565,3.567076 -2.42936,14.860307 C 63.15329,89.16496 63.497222,96.975 63.86319,100 l 0.665395,5.5 2.567933,-4 C 68.508881,99.3 71.764949,93.629355 74.332225,88.898566 78.708762,80.833803 79,79.829583 79,72.803553 79,66.458329 78.677821,65.018407 76.897621,63.407348 71.999434,58.97455 70.444281,49.659123 73.415342,42.548373 76.93439,34.126105 87.475683,35.189213 90.933388,44.3151 93.272886,50.489716 91.564299,58.163792 86.513677,64.166115 84.005082,67.147411 84,67.195502 84,87.954281 84,105.22396 84.25464,108.96644 85.5,110 c 1.894601,1.57238 1.912944,3.4124 0.04944,4.95897 -0.8335,0.69174 -1.577943,3.40256 -1.75,6.37245 C 83.523286,126.09806 83.305583,126.5 81,126.5 c -2.247245,0 -2.532227,-0.45298 -2.818755,-4.48038 C 77.741541,115.83918 76.748849,115 69.877555,115 H 64 v 5.3 c 0,6.76539 -2.244886,9.51971 -5.026871,6.16762 z m 18.83736,-21.85713 c 0.440751,-6.940851 -1.046099,-7.6722 -4.183941,-2.05799 -3.542591,6.33838 -3.429826,7.65167 0.623452,7.26086 3.131121,-0.3019 3.261357,-0.49221 3.560489,-5.20287 z M 104.66667,77.333333 C 104.3,76.966667 104,68.471767 104,58.455778 c 0,-19.21117 0.4358,-21.090699 4.70196,-20.2787 1.49668,0.28487 1.88184,1.664142 2.29804,8.229181 0.55097,8.690924 1.7158,10.383854 6.34522,9.221943 C 119.91417,54.983438 120,54.7265 120,47.680948 c 0,-4.329626 0.48642,-7.767366 1.2,-8.480948 1.80186,-1.801862 4.59814,-1.445703 5.76482,0.734259 1.10181,2.058749 1.47386,33.758994 0.42819,36.483954 C 127.03435,77.35287 125.61025,78 123.91206,78 c -3.30562,0 -3.75268,-1.129846 -4.15466,-10.5 l -0.2574,-6 h -4 -4 l -0.29044,8.25 -0.29044,8.25 h -2.7929 c -1.53609,0 -3.09289,-0.3 -3.45955,-0.666667 z M 135.22873,58.289243 135.5,38.5 l 6.46915,-0.303406 c 8.77891,-0.411734 11.24372,0.290213 10.84577,3.088752 C 152.54946,43.152165 151.7147,43.57853 147.5,44 l -5,0.5 -0.30226,5.25 -0.30226,5.25 h 3.92982 c 7.52656,0 8.42091,5.653625 0.97917,6.189841 L 142.5,61.5 v 5.5 5.5 l 5,0.5 c 4.16667,0.416667 5,0.833333 5,2.5 0,1.826004 -0.76308,2.025164 -8.77127,2.289243 l -8.77127,0.289243 z M 160,75.926764 c 0,-4.436017 7.12667,-36.388193 8.27946,-37.120639 1.8403,-1.169277 7.50781,-0.959348 8.29051,0.307088 C 177.23544,40.189961 185,75.245498 185,77.173208 c 0,0.52443 -1.43658,0.812498 -3.19239,0.64015 -2.71113,-0.266118 -3.32815,-0.840757 -4.09297,-3.811799 -1.03194,-4.008752 -2.15204,-4.964741 -5.8422,-4.986246 -3.12363,-0.0182 -4.39948,1.352866 -5.33642,5.734687 C 165.94454,77.516166 165.4063,78 162.92054,78 160.63228,78 160,77.551159 160,75.926764 Z M 174.95645,61.25 c -0.057,-3.596844 -1.52984,-11.156723 -2.32942,-11.956308 -1.10311,-1.103107 -1.67236,0.297724 -2.69079,6.621602 C 168.80309,62.951498 169.14324,64 172.55902,64 c 2.00678,0 2.43323,-0.489169 2.39743,-2.75 z m 17.50501,15.510163 c -0.27954,-0.728481 -0.38523,-9.635032 -0.23486,-19.792337 L 192.5,38.5 h 3 3 l 0.27412,16.737002 c 0.30399,18.560976 -0.2653,17.144167 7.22588,17.983043 1.74002,0.19485 2.5,0.887943 2.5,2.279955 0,1.803194 -0.76411,2.028767 -7.76514,2.292337 -5.73644,0.215961 -7.89792,-0.0537 -8.2734,-1.032174 z M 216.77446,61.311534 216.5,44.5 213,44 c -2.93333,-0.419048 -3.5,-0.904762 -3.5,-3 v -2.5 h 10.5 10.5 v 2.490179 c 0,1.985089 -0.6085,2.595247 -3,3.008177 l -3,0.517997 L 224,61.008177 223.5,77.5 l -3.22554,0.311534 -3.22554,0.311535 z m 20.93812,16.067709 C 237.32066,76.987326 237,68.20024 237,57.852385 V 39.038104 l 2.57322,-0.645836 c 1.41526,-0.35521 2.96829,-0.250758 3.45116,0.232116 0.48288,0.482874 1.01243,4.205281 1.17679,8.272016 0.33099,8.189803 1.52764,9.89045 6.14405,8.731802 C 252.93877,54.977263 253,54.779198 253,47.039965 c 0,-8.436775 0.62021,-9.603087 4.57834,-8.609658 l 2.46467,0.618593 -0.2715,19.22555 L 259.5,77.5 h -3 -3 l -0.5,-8 -0.5,-8 h -4 -4 l -0.5,8 c -0.4792,7.667156 -0.60557,8.012311 -3.03742,8.29591 -1.39559,0.16275 -2.85809,-0.02475 -3.25,-0.416667 z M 274.74429,70.25 C 274.35931,64.430402 273.19388,59.785584 270.06545,51.602412 265.77272,40.373732 265.55994,38 268.84617,38 c 2.66493,0 4.06758,2.018356 6.05488,8.712737 0.9739,3.280675 2.29299,5.787263 3.04554,5.787263 0.77395,0 2.16899,-2.823059 3.34538,-6.769825 1.64131,-5.506602 2.46908,-6.883082 4.43615,-7.376784 4.48733,-1.126251 4.52227,0.845788 0.21673,12.232468 -3.17921,8.407916 -4.24958,12.808597 -4.66126,19.164141 -0.5312,8.200769 -0.55078,8.25 -3.28051,8.25 -2.71449,0 -2.75201,-0.08924 -3.25879,-7.75 z"
         id="path224" />
      <path
         style="fill:#585e63;stroke:none"
         d="M 141.61451,195.47165 C 140.72653,194.58367 140,193.07965 140,192.12937 c 0,-1.37628 -0.69209,-1.64697 -3.40203,-1.3306 C 131.20912,191.42789 129,188.50246 129,180.73713 c 0,-5.53568 -0.26125,-6.37749 -2.25,-7.25 -1.80291,-0.79098 -2.31059,-1.93175 -2.55495,-5.74099 -0.27628,-4.30703 -0.0648,-4.84516 2.25,-5.72525 C 128.77981,161.13322 129,160.54946 129,155.24726 129,147.64327 130.78803,145 135.9317,145 c 3.4472,0 3.87694,-0.29318 4.4216,-3.0165 0.7495,-3.74752 4.38925,-5.34985 10.60724,-4.66966 6.90092,0.7549 8.03946,2.85043 8.03946,14.79694 V 162 h 32 32 v -10.30887 c 0,-12.48199 0.68154,-13.76194 7.68632,-14.43501 6.03139,-0.57954 9.09929,0.83044 10.49053,4.82136 0.84074,2.41174 1.58,2.92252 4.22985,2.92252 5.51343,0 6.96587,1.90178 7.40638,9.69774 0.33405,5.91189 0.70259,7.0527 2.53885,7.85902 3.73079,1.63823 3.0705,11.44324 -0.77062,11.44324 -0.94914,0 -1.46979,1.90762 -1.7586,6.4434 -0.49601,7.7896 -2.61735,10.8105 -7.27161,10.35512 -2.53072,-0.24761 -3.30786,0.21314 -4.55654,2.70148 -1.42953,2.84874 -1.8569,3.01517 -8.47623,3.30085 C 223.42415,197.19334 223,196.6144 223,183.80887 V 174 h -32 -32 l -0.0147,8.75 c -0.008,5.02112 -0.55202,9.8154 -1.27548,11.25 -1.1262,2.23321 -1.96613,2.53128 -7.87075,2.79308 -5.03897,0.22342 -6.99374,-0.0907 -8.22452,-1.32143 z m 14.22449,-0.77766 c 0.59614,-0.71831 1.21374,-5.78081 1.37245,-11.25 L 157.5,173.5 190.75,173.23652 224,172.97304 v 8.94838 c 0,4.92161 0.44671,10.12331 0.99268,11.55934 0.95222,2.50452 1.26813,2.59889 7.75,2.3151 L 239.5,195.5 v -28 -28 l -6.39843,-0.30157 c -3.71762,-0.17522 -6.85997,0.15803 -7.5,0.79539 -0.60586,0.60332 -1.32657,5.91403 -1.60157,11.80157 l -0.5,10.70461 -32.72753,0.26364 -32.72752,0.26363 -0.52357,-2.26363 C 157.23341,159.51864 156.8858,154.225 156.7489,149 l -0.2489,-9.5 -6.47427,-0.30354 c -5.23668,-0.24551 -6.71813,0.03 -7.75,1.44113 -1.62347,2.22024 -1.84057,50.43849 -0.24055,53.42815 0.84212,1.57351 2.12483,1.93426 6.87756,1.93426 3.58758,0 6.26069,-0.50404 6.92626,-1.30601 z M 138.5,168 v -21.5 l -2.33247,-0.33036 c -4.2308,-0.59923 -6.16753,2.38714 -6.16753,9.5101 0,5.87428 -0.19447,6.4437 -2.5,7.32026 -1.96976,0.7489 -2.49675,1.64506 -2.48469,4.22525 0.0176,3.75651 0.76292,5.15433 3.23469,6.06631 1.40187,0.51722 1.75,1.84552 1.75,6.67706 0,6.77132 2.33268,10.40918 6.31149,9.84287 C 138.48532,189.50209 138.5,189.35575 138.5,168 Z m 110.56574,20.96482 C 250.64159,188.12145 251,186.83953 251,182.0466 251,175.28811 251.65047,173 253.57181,173 c 3.96262,0 4.08629,-8.79761 0.14796,-10.52589 -1.91062,-0.83844 -2.262,-1.87404 -2.52298,-7.43576 -0.16677,-3.55391 -0.78437,-7.04141 -1.37245,-7.75 -1.51407,-1.82435 -6.48219,-1.62236 -7.21735,0.29344 -1.05361,2.74566 -0.67629,38.42021 0.42819,40.48395 1.15388,2.15603 3.13111,2.45081 6.03056,0.89908 z M 108.61865,132.08726 c -1.58474,-1.04476 -4.95382,-2.21035 -7.48683,-2.5902 C 95.00462,128.57823 91.124034,126.45643 89.957039,123.387 89.430668,122.00254 89,114.02422 89,105.65741 c 0,-12.445533 0.296594,-15.635845 1.630693,-17.540537 4.707704,-6.72119 20.030907,-6.72119 24.738617,0 1.33558,1.906804 1.63069,5.104881 1.63069,17.671377 0,9.18374 -0.43864,16.16283 -1.09264,17.38485 -0.79019,1.47648 -0.79019,2.34407 0,3.13426 1.63228,1.63228 1.32229,4.17483 -0.7361,6.03765 -2.31782,2.0976 -3.0219,2.06991 -6.55261,-0.25775 z m 6.39692,-1.60602 c 1.02735,-1.23788 0.95901,-1.85185 -0.36952,-3.31986 -1.43939,-1.5905 -1.45924,-2.02679 -0.16982,-3.73124 1.12912,-1.49255 1.46737,-5.40497 1.49197,-17.25706 L 116,90.846154 113.15046,87.996617 c -5.17621,-5.176213 -15.12471,-5.176213 -20.300923,0 L 90,90.846154 V 106.5 122.15385 l 2.923077,2.92307 c 2.326621,2.32662 3.805988,2.92442 7.250003,2.92967 2.63464,0.004 5.50024,0.78365 7.32692,1.99341 3.59864,2.38329 5.81901,2.52546 7.51557,0.48124 z m -15.647115,-9.67488 c -1.074019,-1.71263 -1.781466,-20.79129 -0.937722,-25.288826 0.496841,-2.648392 1.275875,-3.656777 3.197707,-4.139126 4.59764,-1.153935 5.82997,1.41504 6.20635,12.938122 0.18413,5.63735 -0.0668,11.80981 -0.55761,13.71659 -0.74864,2.90838 -1.39157,3.51623 -3.99094,3.77324 -1.76825,0.17483 -3.450266,-0.2545 -3.917785,-1 z M 105.5,106.5 v -14 h -2.5 -2.5 l -0.28135,12.94711 c -0.15474,7.12092 -0.0442,13.56498 0.24553,14.32014 0.2899,0.75547 1.54089,1.22903 2.78135,1.05289 C 105.46222,120.50536 105.5,120.26541 105.5,106.5 Z m 191.90499,21.39626 c -1.77042,-1.95513 -1.89864,-3.84476 -1.81503,-26.75 0.13791,-37.782507 0.13174,-37.679594 2.54331,-42.41451 1.18542,-2.327462 3.16903,-5.58175 4.40802,-7.23175 1.90236,-2.533414 2.16881,-3.841285 1.71319,-8.409198 C 303.60432,36.572449 305.06241,35 311.75687,35 c 7.23164,0 8.47311,1.202146 8.09105,7.834788 -0.27961,4.854097 0.0509,6.174734 2.29465,9.168099 6.34519,8.465141 6.22592,7.711078 6.64239,41.997113 0.47537,39.13518 1.92704,36 -16.66893,36 -11.7462,0 -12.96372,-0.17411 -14.71104,-2.10374 z m 29.12145,-1.29627 c 1.35585,-2.06929 1.51373,-5.8932 1.14574,-27.749999 -0.23475,-13.942495 -0.46093,-28.079628 -0.50263,-31.415851 -0.0677,-5.420058 -0.53328,-6.750871 -4.37268,-12.5 C 319.03511,49.301268 318.5,47.815064 318.5,43 v -5.5 l -6.21917,-0.296917 c -6.0355,-0.288148 -6.23936,-0.216488 -6.90267,2.426356 -0.37593,1.4978 -0.20078,4.002147 0.38921,5.565216 0.919,2.434708 0.73685,3.241093 -1.27116,5.627483 -1.28914,1.532047 -3.45368,4.872789 -4.8101,7.423871 -2.45933,4.625362 -2.46664,4.725535 -2.61256,35.827207 -0.13145,28.016604 0.0257,31.378974 1.54505,33.057834 1.47752,1.63264 3.24936,1.86895 14.01333,1.86895 11.90305,0 12.37543,-0.0816 13.89451,-2.40001 z M 310.26829,102.00061 C 310.46377,99.048339 310.14822,98.451162 308.25,98.181058 307.0125,98.00497 306,97.492049 306,97.041233 c 0,-1.338326 3.93046,-5.648794 3.96673,-4.35025 C 309.98503,93.346024 309.55,94.160081 309,94.5 c -1.49162,0.921871 -1.20736,2.5 0.45031,2.5 0.79767,0 1.86342,0.738179 2.36832,1.640398 0.50491,0.902219 1.42727,1.325661 2.04969,0.940983 C 315.44064,98.609635 315.28922,96 313.66052,96 c -0.73672,0 -1.86029,-1.143023 -2.49682,-2.540052 -0.93679,-2.056037 -0.85018,-3.008802 0.4545,-5 2.27048,-3.465185 2.59999,-3.097754 1.82953,2.040052 -0.61885,4.126771 -0.49952,4.5 1.43873,4.5 3.04761,0 2.60929,2.109109 -1.36817,6.58339 L 310.03657,105.5 Z M 129.0964,127.78997 c -1.32198,-0.70948 -3.34698,-2.55922 -4.5,-4.11052 -1.89845,-2.55422 -2.12803,-4.42332 -2.43141,-19.7951 -0.38349,-19.430368 -0.15405,-20.153119 6.24854,-19.683857 L 132.5,84.5 133.08355,102 c 0.32095,9.625 0.65845,17.64239 0.75,17.81642 0.0915,0.17403 1.40395,0.17403 2.91645,0 l 2.75,-0.31642 0.27563,-16.42841 c 0.17475,-10.415933 0.69207,-16.930214 1.41353,-17.799512 0.71365,-0.859895 2.6615,-1.259424 5.22437,-1.071585 L 150.5,84.5 l 0.27192,18.70969 0.27191,18.7097 -2.90476,3.251 c -2.66299,2.9804 -3.47635,3.2784 -9.77192,3.58027 -4.30219,0.20629 -7.76492,-0.15254 -9.27075,-0.96069 z m 17.52699,-3.21336 3.42338,-3.42338 -0.27338,-17.82662 L 149.5,85.5 h -3.5 -3.5 l -0.5,16.83174 c -0.45089,15.17845 -0.69067,16.97105 -2.44113,18.25 -2.40471,1.75697 -2.71245,1.75706 -5.11774,0.001 -1.75055,-1.27774 -1.99022,-3.0695 -2.44113,-18.25 L 131.5,85.5 h -3.5 -3.5 l -0.27928,17.5 c -0.30086,18.8527 0.13863,21.03504 4.74036,23.53862 1.3964,0.75972 5.17142,1.39932 8.38892,1.42134 5.35199,0.0366 6.14143,-0.25139 9.27339,-3.38335 z m 9.62661,3.76111 c -0.6875,-0.27741 -1.25,-1.21188 -1.25,-2.07659 0,-3.31524 8.15774,-39.746267 9.17441,-40.971276 C 164.80382,84.531455 167.44462,84 170.5837,84 h 5.33882 l 1.38552,4.75 c 0.76204,2.6125 3.11181,12.32256 5.22171,21.5779 4.213,18.48087 4.19573,18.626 -2.22073,18.65679 -3.51387,0.0169 -4.31275,-0.80166 -5.84106,-5.98469 -0.92131,-3.1245 -1.40228,-3.5 -4.48304,-3.5 -3.22936,0 -3.49123,0.24752 -4.07747,3.85416 -0.34456,2.11978 -1.25219,4.25039 -2.01696,4.73468 -1.48867,0.94271 -5.58992,1.0763 -7.64049,0.24888 z m 7.17857,-1.90915 c 0.86429,-0.86428 1.57832,-2.55178 1.58674,-3.75 0.0262,-3.71991 1.41062,-4.83986 5.5601,-4.49777 3.46085,0.28532 3.98079,0.69072 4.89821,3.8192 1.45018,4.94518 2.32268,6 4.96295,6 4.69559,0 4.67776,-1.51581 -0.26503,-22.52481 L 175.47197,85.5 170.32971,85.200991 c -6.17352,-0.358974 -5.48374,-1.866992 -10.83754,23.693269 -2.94662,14.06784 -3.38986,17.55498 -2.31777,18.23469 2.05413,1.30231 4.52858,1.02521 6.25417,-0.70038 z m 4.15624,-15.29134 C 166.82511,109.908 169.0469,98 170.03595,98 c 1.08711,0 3.28719,10.71552 2.579,12.56103 -0.60005,1.56373 -4.16727,1.97235 -5.03014,0.5762 z m 3.81865,-0.98103 c 0.80378,-1.30054 -0.58102,-8.38321 -1.45969,-7.4657 -0.68152,0.71164 -1.3436,5.47952 -1.04973,7.5595 0.14356,1.01613 1.86318,0.95185 2.50942,-0.0938 z M 191.2,127.8 c -1.26741,-1.26741 -1.7985,-39.076772 -0.59301,-42.218213 0.84849,-2.211144 8.93753,-2.211144 9.78602,0 C 200.72686,86.451771 201,94.527115 201,103.527 v 16.36342 l 4.75,0.30479 c 4.59983,0.29515 4.76025,0.41212 5.07418,3.69993 0.19497,2.04185 -0.20363,3.72977 -1,4.23468 -2.08005,1.31879 -17.24412,1.05024 -18.62418,-0.32982 z m 17.63749,-0.6784 c 0.73562,-0.46628 1.18562,-1.92189 1,-3.23469 C 209.55189,121.86698 208.80813,121.42313 205,121 l -4.5,-0.5 -0.56007,-17.5 c -0.30804,-9.625 -0.64554,-17.6125 -0.75,-17.75 -0.10446,-0.1375 -1.71679,-0.25 -3.58294,-0.25 -2.17149,0 -3.61153,0.56946 -4,1.581787 C 190.40487,89.714469 190.933,125.533 192.2,126.8 c 1.3776,1.3776 14.56921,1.63259 16.63749,0.3216 z M 216.2,127.8 c -1.40471,-1.40471 -1.71213,-40.44409 -0.33558,-42.614871 0.53882,-0.849693 2.39076,-1.203475 5.23469,-1 L 225.5,84.5 l 0.27066,20.87264 c 0.18871,14.5525 -0.0755,21.2897 -0.87244,22.25 -1.40702,1.69536 -7.06486,1.81072 -8.69822,0.17736 z m 7.6991,-1.17842 c 0.79516,-0.95812 1.06119,-7.43771 0.87245,-21.25 L 224.5,85.5 221.10486,85.175817 c -2.04185,-0.194966 -3.72977,0.203628 -4.23468,1 -0.46176,0.728301 -0.84645,9.964322 -0.85487,20.524493 -0.0137,17.24076 0.16329,19.30434 1.73469,20.21959 2.45702,1.43108 4.8085,1.317 6.1491,-0.29832 z M 239.2,127.8 c -0.83775,-0.83775 -1.2,-6.25325 -1.2,-17.93963 V 93.120731 l -3.75,-0.310366 C 230.59339,92.50773 230.5,92.40038 230.5,88.5 v -4 h 13 13 l 0.32418,3.395135 c 0.36357,3.807579 -0.89131,5.066261 -5.07418,5.089552 L 249,93 v 16.8 c 0,11.73333 -0.3619,17.1619 -1.2,18 -1.55009,1.55009 -7.04991,1.55009 -8.6,0 z m 7.6,-1 c 0.8381,-0.8381 1.2,-6.26667 1.2,-18 V 92 l 2.75,-0.01531 c 3.8653,-0.02152 5.47996,-1.322069 5.08749,-4.097777 C 255.50317,85.522386 255.38746,85.5 243.5,85.5 h -12 v 3 c 0,2.666667 0.38889,3.055556 3.5,3.5 l 3.5,0.5 0.27563,16.42841 c 0.16847,10.04176 0.70202,16.94219 1.37244,17.75 1.36845,1.64888 5.05721,1.71631 6.65193,0.12159 z m 23.4,1 c -0.71492,-0.71492 -1.2,-4.16125 -1.2,-8.52562 0,-6.27897 -0.64294,-9.00037 -4.5,-19.04748 C 262.025,93.779879 260,87.491406 260,86.25252 260,84.258867 260.50308,84 264.37756,84 c 5.04862,0 5.84065,0.75779 7.60444,7.275761 0.71079,2.626669 1.6433,4.992659 2.07223,5.257756 0.42894,0.265097 1.55175,-1.883996 2.49514,-4.775761 0.9434,-2.891766 2.16082,-5.820256 2.70539,-6.507756 1.45931,-1.842318 8.66999,-1.609675 9.40411,0.303411 0.32785,0.854376 -1.49311,7.041876 -4.04659,13.75 -3.89145,10.223039 -4.64023,13.299459 -4.62748,19.012329 C 280.00391,126.88641 278.9515,129 274.66482,129 272.86917,129 270.86,128.46 270.2,127.8 Z m 7.22857,-1.37143 C 278.56072,125.29643 279,122.88123 279,117.78882 c 0,-5.96543 0.70688,-8.92619 4.53027,-18.975091 2.49165,-6.548716 4.26509,-12.335826 3.94098,-12.860243 -0.85173,-1.378129 -6.20877,-1.172753 -7.16223,0.274582 -0.44496,0.675437 -1.73804,3.910111 -2.87352,7.188165 -1.13547,3.278053 -2.52091,6.112236 -3.07875,6.298183 -0.55784,0.185946 -1.79691,-2.476988 -2.7535,-5.917631 -0.95658,-3.440644 -2.21374,-6.827457 -2.79369,-7.526251 C 267.30329,84.45559 261,84.604938 261,86.455571 c 0,0.800564 2.025,6.695016 4.5,13.098783 3.83884,9.932546 4.5,12.701236 4.5,18.844426 0,4.26762 0.48885,7.69007 1.2,8.40122 1.66087,1.66087 4.35705,1.50009 6.22857,-0.37143 z"
         id="path222" />
      <path
         style="fill:#5d3135;stroke:none"
         d="M 57.180418,127.35791 C 56.64922,126.40871 56.477223,114.44686 56.772802,99.009579 57.275132,72.774316 57.245881,72.251586 55.114102,69.368201 53.080788,66.617996 52.961569,65.490019 53.222027,51.466527 53.499199,36.543107 53.506875,36.499028 55.88691,36.162508 59.321385,35.676897 59.967493,37.425093 59.984687,47.25 59.993711,52.406458 60.41069,56 61,56 c 0.590909,0 1,-3.6 1,-8.8 0,-9.094764 0.794116,-11.2 4.224751,-11.2 2.007534,0 3.752581,3.575333 3.814391,7.8151 0.03764,2.581578 0.09707,2.551356 1.544333,-0.785347 2.134906,-4.922066 4.206652,-6.899754 7.966874,-7.605176 4.15935,-0.780299 6.610233,0.0087 9.735829,3.134328 5.630233,5.630233 5.434284,18.273067 -0.38595,24.901947 L 86,66.76403 v 21.010996 c 0,17.753954 0.232524,21.100224 1.5,21.586604 0.825,0.31658 1.5,1.65962 1.5,2.98454 0,1.32492 -0.675,2.96914 -1.5,3.65383 -0.90328,0.74966 -1.5,2.93763 -1.5,5.5 0,5.07815 -1.640803,6.75439 -6.184676,6.31823 -3.247497,-0.31172 -3.321508,-0.42564 -3.617584,-5.56823 L 75.895481,117 H 70.94774 66 v 3.77749 c 0,2.07763 -0.700517,4.77763 -1.556704,6 -1.829487,2.61196 -5.942043,2.94062 -7.262878,0.58042 z M 62.8,126.8 c 0.66,-0.66 1.2,-3.585 1.2,-6.5 V 115 h 5.877555 c 6.871294,0 7.863986,0.83918 8.30369,7.01962 0.286528,4.0274 0.57151,4.48038 2.818755,4.48038 2.305583,0 2.523286,-0.40194 2.799436,-5.16858 0.172057,-2.96989 0.9165,-5.68071 1.75,-6.37245 C 87.412944,113.4124 87.394601,111.57238 85.5,110 84.25464,108.96644 84,105.22396 84,87.954281 84,67.195502 84.005082,67.147411 86.513677,64.166115 93.264851,56.1428 93.787546,45.685476 87.759074,39.25 85.446986,36.781816 80.305979,36.230693 76.8496,38.080491 74.033014,39.587883 72,45.011258 72,51.017541 c 0,5.456962 1.539021,9.350316 4.897621,12.389807 C 78.677821,65.018407 79,66.458329 79,72.803553 c 0,7.02603 -0.291238,8.03025 -4.667775,16.095013 C 71.764949,93.629355 68.508881,99.3 67.096518,101.5 l -2.567933,4 -0.665395,-5.5 c -0.365968,-3.025 -0.7099,-10.83504 -0.764293,-17.355644 -0.09421,-11.293231 0.02104,-11.998181 2.42936,-14.860307 2.460425,-2.924049 2.520791,-3.356862 2.25,-16.13201 C 67.53285,40.074439 67.293404,38.485064 65.75,38.189022 64.194372,37.890634 64,38.796503 64,46.344888 64,56.052694 63.500379,58 61.009643,58 58.695845,58 58.030386,55.262786 58.013655,45.676676 58.001598,38.768677 57.795251,37.892634 56.25,38.189096 c -1.548226,0.297034 -1.782017,1.910296 -2.02769,13.991925 -0.2694,13.248511 -0.205388,13.734195 2.144279,16.269527 l 2.421969,2.613348 -0.543595,26.935674 c -0.423254,20.97268 -0.262053,27.27491 0.728166,28.46805 1.532419,1.84645 2.250435,1.90882 3.826871,0.33238 z M 71,108.68931 c 0,-0.79057 1.181947,-3.55214 2.626548,-6.13681 3.137842,-5.61421 4.624692,-4.882861 4.183941,2.05799 -0.299132,4.71066 -0.429368,4.90097 -3.560489,5.20287 C 71.945344,110.03557 71,109.70861 71,108.68931 Z M 75.968197,105.25 c -0.03046,-2.63406 -0.0937,-2.66816 -1.5,-0.80887 C 72.597414,106.91453 72.607114,108 74.5,108 c 0.977407,0 1.48892,-0.95809 1.468197,-2.75 z M 72.25,89.550838 C 77.445253,80.138559 78,78.557342 78,73.161374 78,67.800678 77.641657,66.760318 74.5,63 72.575,60.695925 71,58.178349 71,57.405386 71,56.632424 70.55,56 70,56 c -0.55,0 -1,2.475 -1,5.5 0,4.166667 -0.484848,5.984848 -2,7.5 -1.816092,1.816092 -2,3.333333 -2,16.5 0,7.975 0.3375,14.492835 0.75,14.484078 0.4125,-0.0088 3.3375,-4.703715 6.5,-10.43324 z M 103.44674,78.72179 c -0.26978,-0.703016 -0.36815,-10.265516 -0.21862,-21.25 L 103.5,37.5 l 3.89821,-0.319201 c 2.44261,-0.20001 4.21056,0.173395 4.73469,1 0.46006,0.72556 0.84337,4.611591 0.85179,8.635623 L 113,54.132845 115.75,53.816422 C 118.44582,53.506235 118.50985,53.342375 119,45.5 l 0.5,-8 h 4.5 4.5 l 0.27022,20.725874 0.27021,20.725875 -2.52021,0.632533 C 125.1341,79.932176 122.875,79.934459 121.5,79.589356 119.09458,78.985633 119,78.65997 119,70.980948 V 63 h -3 -3 v 6.565741 C 113,78.023602 111.94561,80 107.43343,80 c -1.92291,0 -3.71692,-0.575195 -3.98669,-1.27821 z M 111.20956,69.75 111.5,61.5 h 4 4 l 0.2574,6 c 0.40198,9.370154 0.84904,10.5 4.15466,10.5 1.69819,0 3.12229,-0.64713 3.48095,-1.581787 1.04567,-2.72496 0.67362,-34.425205 -0.42819,-36.483954 C 125.79814,37.754297 123.00186,37.398138 121.2,39.2 c -0.71358,0.713582 -1.2,4.151322 -1.2,8.480948 0,7.045552 -0.0858,7.30249 -2.65478,7.947254 C 112.7158,56.790113 111.55097,55.097183 111,46.406259 110.5838,39.84122 110.19864,38.461948 108.70196,38.177078 104.4358,37.365079 104,39.244608 104,58.455778 c 0,10.015989 0.3,18.510889 0.66667,18.877555 C 105.03333,77.7 106.59013,78 108.12622,78 h 2.7929 z M 134.2,78.8 C 132.933,77.533005 132.40487,41.714469 133.60699,38.581787 134.10065,37.295336 135.96118,37 143.57181,37 c 8.21714,0 9.48357,0.234962 10.38942,1.927558 1.08684,2.030778 0.41776,5.07045 -1.38829,6.307129 -0.59012,0.404078 -3.0126,0.741578 -5.38331,0.75 L 142.87927,46 l 0.31036,3.75 c 0.3017,3.645266 0.43605,3.763965 4.81037,4.25 4.34129,0.482365 4.51067,0.627663 4.80259,4.119615 0.32754,3.918047 -1.0157,4.837106 -7.11296,4.86673 -2.63406,0.0128 -2.79089,0.248904 -2.5,3.763655 0.30732,3.713103 0.35705,3.752996 5.05438,4.054546 5.60476,0.359804 7.71121,2.803563 5.88031,6.821947 C 153.10512,79.8634 152.53519,80 144.22144,80 138.69365,80 134.95196,79.551957 134.2,78.8 Z m 18.3,-3.3 c 0,-1.666667 -0.83333,-2.083333 -5,-2.5 l -5,-0.5 V 67 61.5 l 4.30447,-0.310159 C 154.24621,60.653625 153.35186,55 145.8253,55 h -3.92982 l 0.30226,-5.25 0.30226,-5.25 5,-0.5 c 4.2147,-0.42147 5.04946,-0.847835 5.31492,-2.714654 0.39795,-2.798539 -2.06686,-3.500486 -10.84577,-3.088752 L 135.5,38.5 l -0.27127,19.789243 -0.27127,19.789243 8.77127,-0.289243 C 151.73692,77.525164 152.5,77.326004 152.5,75.5 Z m 6.54872,3.577104 c -1.24255,-0.808174 -0.90321,-3.650207 2.35944,-19.760519 2.0959,-10.349122 4.22731,-19.604085 4.73647,-20.566585 1.1156,-2.10892 10.0192,-2.492501 11.6059,-0.5 0.54749,0.6875 2.84254,9.765999 5.10012,20.174443 4.39435,20.259902 4.34975,21.589808 -0.72309,21.560244 -3.77046,-0.02197 -5.23361,-1.264341 -6.01273,-5.105422 -0.58616,-2.889801 -1.1461,-3.424282 -3.86583,-3.690064 -2.78248,-0.271916 -3.25468,0.04086 -3.77425,2.5 C 168.14812,75.23514 167.5248,77.175 167.08959,78 c -0.92908,1.761214 -5.95415,2.434339 -8.04087,1.077104 z M 166.53602,74.75 c 0.93694,-4.381821 2.21279,-5.752891 5.33642,-5.734687 3.69016,0.0215 4.81026,0.977494 5.8422,4.986246 0.76482,2.971042 1.38184,3.545681 4.09297,3.811799 1.75581,0.172348 3.19239,-0.11572 3.19239,-0.64015 0,-1.92771 -7.76456,-36.983247 -8.43003,-38.059995 -0.7827,-1.266436 -6.45021,-1.476365 -8.29051,-0.307088 C 167.12667,39.538571 160,71.490747 160,75.926764 160,77.551159 160.63228,78 162.92054,78 c 2.48576,0 3.024,-0.483834 3.61548,-3.25 z m 2.99347,-11.702278 c -0.62856,-1.017033 1.04019,-12.950735 1.93627,-13.846817 0.94838,-0.948374 1.76961,0.623202 2.61771,5.009454 C 175.60077,62.057548 175.29829,64 172.55902,64 c -1.34254,0 -2.70583,-0.428525 -3.02953,-0.952278 z M 173.21331,59 c -0.24217,-1.65 -0.83923,-3 -1.32681,-3 -0.48757,0 -0.8865,1.35 -0.8865,3 0,1.825955 0.51924,3 1.32681,3 0.90541,0 1.18696,-0.952809 0.8865,-3 z m 17.84228,19.103864 C 189.93248,76.00532 189.53928,41.364182 190.60699,38.581787 191.33958,36.672692 197.99624,36.39624 199.8,38.2 c 0.83207,0.832068 1.2,6.044444 1.2,17 V 71 l 3.25,0.01531 c 4.69008,0.0221 5.94835,1.170966 5.57418,5.089552 L 209.5,79.5 l -8.69441,0.288122 c -7.79511,0.25832 -8.8036,0.08411 -9.75,-1.684258 z M 208.5,75.5 c 0,-1.392012 -0.75998,-2.085105 -2.5,-2.279955 -7.49118,-0.838876 -6.92189,0.577933 -7.22588,-17.983043 L 198.5,38.5 h -3 -3 l -0.2734,18.467826 c -0.15037,10.157305 -0.0447,19.063856 0.23486,19.792337 0.37548,0.978472 2.53696,1.248135 8.2734,1.032174 C 207.73589,77.528767 208.5,77.303194 208.5,75.5 Z m 7.74572,3.345717 C 215.3573,77.957297 215,73.100153 215,61.911291 V 46.222582 l -3.38981,-0.635933 c -3.73198,-0.700123 -5.22761,-3.564473 -3.52367,-6.748322 C 208.95355,37.21827 210.42936,37 220.51613,37 c 11.3721,0 11.4498,0.01608 12.07266,2.497764 0.94069,3.748 -0.1132,5.332305 -3.78145,5.684601 L 225.5,45.5 l -0.5,17 -0.5,17 -3.50428,0.295717 c -1.92736,0.162644 -4.06486,-0.264856 -4.75,-0.95 z M 224,61.008177 l 0.5,-16.491824 3,-0.517997 c 2.3915,-0.41293 3,-1.023088 3,-3.008177 V 38.5 H 220 209.5 V 41 c 0,2.095238 0.56667,2.580952 3.5,3 l 3.5,0.5 0.27446,16.811534 0.27446,16.811535 3.22554,-0.311535 L 223.5,77.5 Z m 12.03518,17.057564 C 235.43388,76.942202 235,68.741482 235,58.5 c 0,-10.241482 0.43388,-18.442202 1.03518,-19.565741 1.43156,-2.674896 7.49808,-2.674896 8.92964,0 0.56935,1.063842 1.03518,4.888842 1.03518,8.5 0,6.33679 0.0872,6.565741 2.5,6.565741 2.41282,0 2.5,-0.228951 2.5,-6.565741 0,-3.611158 0.46583,-7.436158 1.03518,-8.5 1.43156,-2.674896 7.49808,-2.674896 8.92964,0 C 261.56612,40.057798 262,48.258518 262,58.5 c 0,10.241482 -0.43388,18.442202 -1.03518,19.565741 -1.43156,2.674896 -7.49808,2.674896 -8.92964,0 C 251.46583,77.001899 251,73.176899 251,69.565741 251,63.228951 250.91282,63 248.5,63 246.08718,63 246,63.228951 246,69.565741 246,77.986589 244.93871,80 240.5,80 c -2.36732,0 -3.75028,-0.599127 -4.46482,-1.934259 z M 244,69.5 l 0.5,-8 h 4 4 l 0.5,8 0.5,8 h 3 3 l 0.27151,-19.22555 0.2715,-19.22555 -2.46467,-0.618593 C 253.62021,37.436878 253,38.60319 253,47.039965 c 0,7.739233 -0.0612,7.937298 -2.65478,8.588237 -4.61641,1.158648 -5.81306,-0.541999 -6.14405,-8.731802 -0.16436,-4.066735 -0.69391,-7.789142 -1.17679,-8.272016 -0.48287,-0.482874 -2.0359,-0.587326 -3.45116,-0.232116 L 237,39.038104 v 18.814281 c 0,10.347855 0.32066,19.134941 0.71258,19.526858 0.39191,0.391917 1.85441,0.579417 3.25,0.416667 C 243.39443,77.512311 243.5208,77.167156 244,69.5 Z m 30.2,9.3 c -0.6919,-0.691903 -1.2,-4.006038 -1.2,-7.827171 0,-5.383723 -0.85192,-8.943682 -4.54044,-18.973414 -2.49725,-6.790434 -4.30136,-12.969282 -4.00915,-13.730774 0.3655,-0.952491 1.86035,-1.288437 4.79044,-1.076586 4.21675,0.304879 4.27886,0.365192 6.23891,6.057945 1.08887,3.1625 2.26789,5.75 2.62004,5.75 0.35215,0 1.21859,-2.1375 1.92541,-4.75 0.70682,-2.6125 1.72041,-5.3125 2.25241,-6 1.27667,-1.649833 8.36482,-1.624166 9.00058,0.03259 0.2707,0.705426 -1.4725,6.667926 -3.87377,13.25 -3.59156,9.844765 -4.36935,13.217857 -4.38518,19.017408 -0.0113,4.124908 -0.51714,7.547888 -1.21925,8.25 -1.54692,1.546918 -6.05308,1.546918 -7.6,0 z m 7.08359,-9.05 c 0.41168,-6.355544 1.48205,-10.756225 4.66126,-19.164141 4.30554,-11.38668 4.2706,-13.358719 -0.21673,-12.232468 -1.96707,0.493702 -2.79484,1.870182 -4.43615,7.376784 -1.17639,3.946766 -2.57143,6.769825 -3.34538,6.769825 -0.75255,0 -2.07164,-2.506588 -3.04554,-5.787263 C 272.91375,40.018356 271.5111,38 268.84617,38 c -3.28623,0 -3.07345,2.373732 1.21928,13.602412 3.12843,8.183172 4.29386,12.82799 4.67884,18.647588 0.50678,7.660757 0.5443,7.75 3.25879,7.75 2.72973,0 2.74931,-0.04923 3.28051,-8.25 z"
         id="path220" />
      <path
         style="fill:#2b3239;stroke:none"
         d="M 0,109 V 0 H 195.5 391 V 109 218 H 195.5 0 Z m 157.70978,85 c 0.72346,-1.4346 1.26702,-6.22888 1.27548,-11.25 L 159,174 h 32 32 v 9.80887 c 0,12.80553 0.42415,13.38447 9.51833,12.99198 6.61933,-0.28568 7.0467,-0.45211 8.47623,-3.30085 1.24868,-2.48834 2.02582,-2.94909 4.55654,-2.70148 4.65426,0.45538 6.7756,-2.56552 7.27161,-10.35512 0.28881,-4.53578 0.80946,-6.4434 1.7586,-6.4434 3.84112,0 4.50141,-9.80501 0.77062,-11.44324 -1.83626,-0.80632 -2.2048,-1.94713 -2.53885,-7.85902 C 252.37257,146.90178 250.92013,145 245.4067,145 c -2.64985,0 -3.38911,-0.51078 -4.22985,-2.92252 -1.39124,-3.99092 -4.45914,-5.4009 -10.49053,-4.82136 C 223.68154,137.92919 223,139.20914 223,151.69113 V 162 h -32 -32 v -9.88922 c 0,-11.94651 -1.13854,-14.04204 -8.03946,-14.79694 -6.21799,-0.68019 -9.85774,0.92214 -10.60724,4.66966 -0.54466,2.72332 -0.9744,3.0165 -4.4216,3.0165 -5.14367,0 -6.9317,2.64327 -6.9317,10.24726 0,5.3022 -0.22019,5.88596 -2.55495,6.77363 -2.3148,0.88009 -2.52628,1.41822 -2.25,5.72525 0.24436,3.80924 0.75204,4.95001 2.55495,5.74099 1.98875,0.87251 2.25,1.71432 2.25,7.25 0,7.76533 2.20912,10.69076 7.59797,10.06164 2.70994,-0.31637 3.40203,-0.0457 3.40203,1.3306 0,3.62515 2.84526,4.9738 9.83903,4.66371 5.90462,-0.2618 6.74455,-0.55987 7.87075,-2.79308 z m -42.53852,-61.65499 c 2.05839,-1.86282 2.36838,-4.40537 0.7361,-6.03765 -0.79019,-0.79019 -0.79019,-1.65778 0,-3.13426 0.654,-1.22202 1.09264,-8.20111 1.09264,-17.38485 0,-12.566496 -0.29511,-15.764573 -1.63069,-17.671377 -4.70771,-6.72119 -20.030913,-6.72119 -24.738617,0 C 89.3939,89.882642 89,92.799222 89,100.19112 c 0,8.25237 -0.229898,9.65789 -1.5,9.17051 C 86.232524,108.87525 86,105.52898 86,87.775026 V 66.76403 l 2.900228,-3.303178 c 5.820234,-6.62888 6.016183,-19.271714 0.38595,-24.901947 -3.125596,-3.125596 -5.576479,-3.914627 -9.735829,-3.134328 -3.760222,0.705422 -5.831968,2.68311 -7.966874,7.605176 -1.447268,3.336703 -1.506698,3.366925 -1.544333,0.785347 C 69.977332,39.575333 68.232285,36 66.224751,36 62.794116,36 62,38.105236 62,47.2 62,52.4 61.590909,56 61,56 60.41069,56 59.993711,52.406458 59.984687,47.25 59.967493,37.425093 59.321385,35.676897 55.88691,36.162508 c -2.380035,0.33652 -2.387711,0.380599 -2.664883,15.304019 -0.260458,14.023492 -0.141239,15.151469 1.892075,17.901674 2.131779,2.883385 2.16103,3.406115 1.6587,29.641378 -0.295579,15.437281 -0.123582,27.399131 0.407616,28.348331 1.320835,2.3602 5.433391,2.03154 7.262878,-0.58042 C 65.299483,125.55512 66,122.85512 66,120.77749 V 117 h 4.94774 4.947741 l 0.302259,5.25 c 0.296076,5.14259 0.370087,5.25651 3.617584,5.56823 C 84.359197,128.25439 86,126.57815 86,121.5 c 0,-2.56237 0.59672,-4.75034 1.5,-5.5 1.277705,-1.0604 1.5,-0.7918 1.5,1.81246 0,7.16779 3.317276,10.36278 12.13182,11.6846 2.53301,0.37985 5.90209,1.54544 7.48683,2.5902 3.53071,2.32766 4.23479,2.35535 6.55261,0.25775 z m -14.70708,-12.57776 c -0.28978,-0.75516 -0.40027,-7.19922 -0.24553,-14.32014 L 100.5,92.5 h 2.5 2.5 v 14 c 0,13.76541 -0.0378,14.00536 -2.25447,14.32014 -1.24046,0.17614 -2.49145,-0.29742 -2.78135,-1.05289 z M 73,107.19113 c 0,-0.44488 0.660688,-1.68238 1.468197,-2.75 1.406298,-1.85929 1.469537,-1.82519 1.5,0.80887 C 75.98892,107.04191 75.477407,108 74.5,108 73.675,108 73,107.63601 73,107.19113 Z M 65,85.5 c 0,-13.166667 0.183908,-14.683908 2,-16.5 1.515152,-1.515152 2,-3.333333 2,-7.5 0,-3.025 0.45,-5.5 1,-5.5 0.55,0 1,0.632424 1,1.405386 0,0.772963 1.575,3.290539 3.5,5.594614 3.141657,3.760318 3.5,4.800678 3.5,10.161374 0,5.395968 -0.554747,6.977185 -5.75,16.389464 -3.1625,5.729525 -6.0875,10.424483 -6.5,10.43324 C 65.3375,99.992835 65,93.475 65,85.5 Z m 262.04484,42.25 c 2.08877,-2.21398 2.11662,-2.75428 1.74012,-33.75 -0.41647,-34.286035 -0.2972,-33.531972 -6.64239,-41.997113 -2.24372,-2.993365 -2.57426,-4.314002 -2.29465,-9.168099 C 320.22998,36.202146 318.98851,35 311.75687,35 c -6.69446,0 -8.15255,1.572449 -7.50239,8.090802 0.45562,4.567913 0.18917,5.875784 -1.71319,8.409198 -1.23899,1.65 -3.2226,4.904288 -4.40802,7.23175 -2.41157,4.734916 -2.4054,4.632003 -2.54331,42.41451 C 295.47665,132.18986 294.2224,130 312.11603,130 c 11.98473,0 12.9422,-0.14431 14.92881,-2.25 z M 311.65459,98.542264 C 311.32909,97.694019 310.37365,97 309.53138,97 c -1.87347,0 -1.89843,-0.931892 -0.0889,-3.319015 1.31944,-1.740564 1.40723,-1.729782 2.03559,0.25 0.3612,1.137958 1.33438,2.069015 2.16264,2.069015 0.86834,0 1.36905,0.70585 1.18261,1.667134 -0.43449,2.240363 -2.43304,2.792316 -3.16873,0.87513 z m -163.51552,26.628126 2.90476,-3.251 -0.27191,-18.7097 L 150.5,84.5 146.41353,84.200493 c -2.56287,-0.187839 -4.51072,0.21169 -5.22437,1.071585 -0.72146,0.869298 -1.23878,7.383579 -1.41353,17.799512 L 139.5,119.5 l -2.75,0.31642 c -1.5125,0.17403 -2.8249,0.17403 -2.91645,0 C 133.742,119.64239 133.4045,111.625 133.08355,102 L 132.5,84.5 128.41353,84.200493 c -6.40259,-0.469262 -6.63203,0.253489 -6.24854,19.683857 0.30338,15.37178 0.53296,17.24088 2.43141,19.7951 3.26118,4.38768 6.11423,5.43834 13.77075,5.07121 6.29557,-0.30187 7.10893,-0.59987 9.77192,-3.58027 z m 15.75142,2.91845 c 0.76477,-0.48429 1.6724,-2.6149 2.01696,-4.73468 0.58624,-3.60664 0.84811,-3.85416 4.07747,-3.85416 3.08076,0 3.56173,0.3755 4.48304,3.5 1.52831,5.18303 2.32719,6.00155 5.84106,5.98469 6.41646,-0.0308 6.43373,-0.17592 2.22073,-18.65679 -2.1099,-9.25534 -4.45967,-18.9654 -5.22171,-21.5779 L 175.92252,84 h -5.33882 c -3.13908,0 -5.77988,0.531455 -6.40929,1.289854 C 163.15774,86.514863 155,122.94589 155,126.26113 c 0,2.51228 5.89552,3.72428 8.89049,1.82771 z M 168.89404,110.25 c -0.29387,-2.07998 0.36821,-6.84786 1.04973,-7.5595 0.87867,-0.91751 2.26347,6.16516 1.45969,7.4657 -0.64624,1.04565 -2.36586,1.10993 -2.50942,0.0938 z m 40.93014,17.87982 c 0.79637,-0.50491 1.19497,-2.19283 1,-4.23468 -0.31393,-3.28781 -0.47435,-3.40478 -5.07418,-3.69993 L 201,119.89042 V 103.527 c 0,-8.999885 -0.27314,-17.075229 -0.60699,-17.945213 -0.84849,-2.211144 -8.93753,-2.211144 -9.78602,0 -1.20549,3.141441 -0.6744,40.950803 0.59301,42.218213 1.38006,1.38006 16.54413,1.64861 18.62418,0.32982 z m 15.07404,-0.50718 c 0.79698,-0.9603 1.06115,-7.6975 0.87244,-22.25 L 225.5,84.5 221.09911,84.185129 c -2.84393,-0.203475 -4.69587,0.150307 -5.23469,1 -1.37655,2.170781 -1.06913,41.210161 0.33558,42.614871 1.63336,1.63336 7.2912,1.518 8.69822,-0.17736 z M 247.8,127.8 c 0.8381,-0.8381 1.2,-6.26667 1.2,-18 V 93 l 2.75,-0.01531 c 4.18287,-0.02329 5.43775,-1.281973 5.07418,-5.089552 L 256.5,84.5 h -13 -13 v 4 c 0,3.90038 0.0934,4.00773 3.75,4.310365 l 3.75,0.310366 v 16.739639 c 0,11.68638 0.36225,17.10188 1.2,17.93963 1.55009,1.55009 7.04991,1.55009 8.6,0 z m 31.16482,-0.73426 c 0.56935,-1.06384 1.02834,-5.00134 1.01998,-8.75 -0.0127,-5.71287 0.73603,-8.78929 4.62748,-19.012329 2.55348,-6.708124 4.37444,-12.895624 4.04659,-13.75 -0.73412,-1.913086 -7.9448,-2.145729 -9.40411,-0.303411 -0.54457,0.6875 -1.76199,3.61599 -2.70539,6.507756 -0.94339,2.891765 -2.0662,5.040858 -2.49514,4.775761 C 273.6253,96.26842 272.69279,93.90243 271.982,91.275761 270.21821,84.75779 269.42618,84 264.37756,84 260.50308,84 260,84.258867 260,86.25252 c 0,1.238886 2.025,7.527359 4.5,13.97438 3.85706,10.04711 4.5,12.76851 4.5,19.04748 0,4.36437 0.48508,7.8107 1.2,8.52562 1.95411,1.95411 7.5782,1.48296 8.76482,-0.73426 z m -167,-48.999999 C 112.53417,77.001899 113,73.176899 113,69.565741 V 63 h 3 3 v 7.980948 c 0,7.679022 0.0946,8.004685 2.5,8.608408 1.375,0.345103 3.6341,0.34282 5.02022,-0.0051 L 129.04043,78.951749 128.77022,58.225874 128.5,37.5 h -4.5 -4.5 l -0.5,8 c -0.49015,7.842375 -0.55418,8.006235 -3.25,8.316422 l -2.75,0.316423 -0.0153,-7.316423 c -0.008,-4.024032 -0.39173,-7.910063 -0.85179,-8.635623 -0.52413,-0.826605 -2.29208,-1.20001 -4.73469,-1 L 103.5,37.5 103.22812,57.47179 c -0.14953,10.984484 -0.0512,20.546984 0.21862,21.25 0.80244,2.091141 7.31632,1.589453 8.51808,-0.656049 z m 42.1595,-0.439248 c 1.8309,-4.018384 -0.27555,-6.462143 -5.88031,-6.821947 -4.69733,-0.30155 -4.74706,-0.341443 -5.05438,-4.054546 -0.29089,-3.514751 -0.13406,-3.750857 2.5,-3.763655 6.09726,-0.02962 7.4405,-0.948683 7.11296,-4.86673 C 152.51067,54.627663 152.34129,54.482365 148,54 c -4.37432,-0.486035 -4.50867,-0.604734 -4.81037,-4.25 l -0.31036,-3.75 4.31036,-0.01531 c 2.37071,-0.0084 4.79319,-0.345922 5.38331,-0.75 1.80605,-1.236679 2.47513,-4.276351 1.38829,-6.307129 C 153.05538,37.234962 151.78895,37 143.57181,37 c -7.61063,0 -9.47116,0.295336 -9.96482,1.581787 C 132.40487,41.714469 132.933,77.533005 134.2,78.8 c 0.75196,0.751957 4.49365,1.2 10.02144,1.2 8.31375,0 8.88368,-0.1366 9.90288,-2.373507 z M 167.08959,78 c 0.43521,-0.825 1.05853,-2.76486 1.38516,-4.310799 0.51957,-2.459139 0.99177,-2.771916 3.77425,-2.5 2.71973,0.265782 3.27967,0.800263 3.86583,3.690064 0.77912,3.841081 2.24227,5.083449 6.01273,5.105422 5.07284,0.02956 5.11744,-1.300342 0.72309,-21.560244 C 180.59307,48.015999 178.29802,38.9375 177.75053,38.25 c -1.5867,-1.992501 -10.4903,-1.60892 -11.6059,0.5 -0.50916,0.9625 -2.64057,10.217463 -4.73647,20.566585 -3.26265,16.110312 -3.60199,18.952345 -2.35944,19.760519 2.08672,1.357235 7.11179,0.68411 8.04087,-1.077104 z M 171,59 c 0,-1.65 0.39893,-3 0.8865,-3 0.48758,0 1.08464,1.35 1.32681,3 0.30046,2.047191 0.0189,3 -0.8865,3 C 171.51924,62 171,60.825955 171,59 Z m 38.82418,17.104865 c 0.37417,-3.918586 -0.8841,-5.067454 -5.57418,-5.089552 L 201,71 V 55.2 c 0,-10.955556 -0.36793,-16.167932 -1.2,-17 -1.80376,-1.80376 -8.46042,-1.527308 -9.19301,0.381787 -1.06771,2.782395 -0.67451,37.423533 0.4486,39.522077 0.9464,1.768368 1.95489,1.942578 9.75,1.684258 L 209.5,79.5 Z M 225,62.5 l 0.5,-17 3.30734,-0.317635 c 3.66825,-0.352296 4.72214,-1.936601 3.78145,-5.684601 C 231.96593,37.016077 231.88823,37 220.51613,37 c -10.08677,0 -11.56258,0.21827 -12.42961,1.838327 -1.70394,3.183849 -0.20831,6.048199 3.52367,6.748322 L 215,46.222582 v 15.688709 c 0,17.430361 0.31299,18.363974 5.99572,17.884426 L 224.5,79.5 Z m 19.96482,15.565741 C 245.53417,77.001899 246,73.176899 246,69.565741 246,63.228951 246.08718,63 248.5,63 c 2.41282,0 2.5,0.228951 2.5,6.565741 0,3.611158 0.46583,7.436158 1.03518,8.5 1.43156,2.674896 7.49808,2.674896 8.92964,0 C 261.56612,76.942202 262,68.741482 262,58.5 c 0,-10.241482 -0.43388,-18.442202 -1.03518,-19.565741 -1.43156,-2.674896 -7.49808,-2.674896 -8.92964,0 C 251.46583,39.998101 251,43.823101 251,47.434259 251,53.771049 250.91282,54 248.5,54 c -2.41282,0 -2.5,-0.228951 -2.5,-6.565741 0,-3.611158 -0.46583,-7.436158 -1.03518,-8.5 -1.43156,-2.674896 -7.49808,-2.674896 -8.92964,0 C 235.43388,40.057798 235,48.258518 235,58.5 c 0,10.241482 0.43388,18.442202 1.03518,19.565741 C 236.74972,79.400873 238.13268,80 240.5,80 c 2.36732,0 3.75028,-0.599127 4.46482,-1.934259 z M 281.8,78.8 c 0.70211,-0.702112 1.20799,-4.125092 1.21925,-8.25 0.0158,-5.799551 0.79362,-9.172643 4.38518,-19.017408 2.40127,-6.582074 4.14447,-12.544574 3.87377,-13.25 -0.63576,-1.656758 -7.72391,-1.682425 -9.00058,-0.03259 -0.532,0.6875 -1.54559,3.3875 -2.25241,6 -0.70682,2.6125 -1.57326,4.75 -1.92541,4.75 -0.35215,0 -1.53117,-2.5875 -2.62004,-5.75 -1.96005,-5.692753 -2.02216,-5.753066 -6.23891,-6.057945 -2.93009,-0.211851 -4.42494,0.124095 -4.79044,1.076586 -0.29221,0.761492 1.5119,6.94034 4.00915,13.730774 C 272.14808,62.029147 273,65.589106 273,70.972829 c 0,3.821133 0.5081,7.135268 1.2,7.827171 1.54692,1.546918 6.05308,1.546918 7.6,0 z"
         id="path218" />
    </g>
  </g>
</svg>
